<svg xmlns="http://www.w3.org/2000/svg" width="171.422" height="80" viewBox="0 0 171.422 80">
  <g id="logo" transform="translate(-5204.4 -3499.835)">
    <path id="Path_544" data-name="Path 544" d="M729.756,172.4a40,40,0,0,1-31.1,73.7c-.228-.114-.457-.209-.685-.3A34.429,34.429,0,1,0,680.8,187.251,40.039,40.039,0,0,1,729.756,172.4Z" transform="translate(4612.876 3330.586)" fill="#f58220" fill-rule="evenodd"/>
    <path id="Path_545" data-name="Path 545" d="M233.8,430.914c51.1,27.5,74.156-16.224,110.369-3.081C303.525,420.491,279.846,462.657,233.8,430.914Z" transform="translate(4974.86 3123.231)" fill="#0160a8" fill-rule="evenodd"/>
    <path id="Path_546" data-name="Path 546" d="M256.8,390.714c51.124,27.5,74.175-16.224,110.369-3.081C326.544,380.291,302.846,422.457,256.8,390.714Z" transform="translate(4956.234 3155.785)" fill="#0160a8" fill-rule="evenodd"/>
    <path id="Path_547" data-name="Path 547" d="M211.4,473.389c51.1,27.5,74.156-16.243,110.35-3.081C281.125,462.966,257.446,505.132,211.4,473.389Z" transform="translate(4993 3088.839)" fill="#0160a8" fill-rule="evenodd"/>
    <path id="Path_548" data-name="Path 548" d="M346.719,259.879l-4.47,6.048c-2.073,2.891-3.652,4.336-4.774,4.336a1.7,1.7,0,0,1-1.388-.894,12.476,12.476,0,0,1-1.236-2.72c-.418-1.217-.7-2.149-.875-2.777a16.508,16.508,0,0,0-.78-2.472l-.685,3.5c-.228,1.122-.437,2.168-.666,3.1-.228.951-.456,2.092-.723,3.4a29.676,29.676,0,0,0-.494,3.005c-.019.209-.228.456-.647.723a2.1,2.1,0,0,1-.932.38,1.646,1.646,0,0,1-1.2-.59,1.683,1.683,0,0,1-.552-1.141,12.934,12.934,0,0,1,.533-3.29q2.225-8.131,2.53-10.232a25.012,25.012,0,0,0,.323-3.5,1.245,1.245,0,0,1,.628-1.122,3.048,3.048,0,0,1,1.655-.38,1.422,1.422,0,0,1,1.084.723,4.324,4.324,0,0,1,.742,1.331l-.019-.019,1.864,5.211c.742,2.092,1.236,3.423,1.484,3.975.97-1.046,2.4-2.872,4.3-5.459s3.2-4.241,3.9-4.983c.7-.761,1.2-1.122,1.484-1.122a2.612,2.612,0,0,1,1.464.552c.533.361.8.685.8.932,0,.209-.171,1.541-.533,4.051-.228,1.75-.456,3.728-.647,5.915s-.3,3.462-.3,3.861a6.611,6.611,0,0,0,.19,1.484,4.859,4.859,0,0,1,.133,1.122,2.618,2.618,0,0,1-.456,1.807,1.878,1.878,0,0,1-1.426.495c-1.179,0-1.769-.894-1.769-2.644a49.7,49.7,0,0,1,.456-6.105c.3-2.4.59-4.241.837-5.535q.143-.713.171-.97Zm15.862,10.289q-3.538,4.65-6.828,4.66a2.686,2.686,0,0,1-2.073-.97,3.37,3.37,0,0,1-.875-2.415c0-2.377,1.065-4.907,3.157-7.589,2.111-2.682,4.241-4.013,6.391-4.013A2.07,2.07,0,0,1,364.5,261.5c1.027,0,1.56.38,1.56,1.179a13.65,13.65,0,0,1-.3,2.035,24.209,24.209,0,0,0-.533,4.412,8.653,8.653,0,0,0,.228,2.415,6.02,6.02,0,0,0,.342.913,1.241,1.241,0,0,0,.647.456.791.791,0,0,1,.533.723,1.341,1.341,0,0,1-.685,1.141,2.594,2.594,0,0,1-1.445.456C363.171,275.227,362.41,273.535,362.581,270.168Zm-.818-7.456c-.894,0-2.073,1.008-3.519,3.005s-2.168,3.69-2.168,5.1q0,1.084.456,1.084c1.065,0,2.358-.932,3.9-2.8,1.541-1.883,2.32-3.519,2.32-4.926a1.65,1.65,0,0,0-.3-1.065A.853.853,0,0,0,361.763,262.713ZM372.813,268l.228-.437a23.167,23.167,0,0,1,3.5-5.287,5.233,5.233,0,0,1,3.671-2.035,3.194,3.194,0,0,1,2.225.761,2.231,2.231,0,0,1,.875,1.769,2.1,2.1,0,0,1-.3,1.122.9.9,0,0,1-.818.456,2.12,2.12,0,0,1-1.522-.685,1.273,1.273,0,0,0-.761-.437c-.666,0-1.788,1.027-3.366,3.119a14.426,14.426,0,0,0-2.853,7.037,2.442,2.442,0,0,1-.647,1.579,2,2,0,0,1-1.388.456,1.37,1.37,0,0,1-1.312-1.065,10.592,10.592,0,0,1-.4-3.443c0-.647.019-1.522.057-2.644.038-1.046.152-2.32.3-3.842.057-.38.076-.7.1-.932a9.84,9.84,0,0,1,.285-1.788,1.818,1.818,0,0,1,.723-.932,1.945,1.945,0,0,1,1.236-.418,1.368,1.368,0,0,1,1.1.418,1.314,1.314,0,0,1,.38.913,11.965,11.965,0,0,1-.609,2.606,12.579,12.579,0,0,0-.361,1.636Zm19.8,2.168c-2.358,3.1-4.622,4.66-6.828,4.66a2.686,2.686,0,0,1-2.073-.97,3.37,3.37,0,0,1-.875-2.415c0-2.377,1.065-4.907,3.157-7.589,2.13-2.682,4.26-4.013,6.41-4.013a2.1,2.1,0,0,1,2.149,1.655c1.027,0,1.541.38,1.541,1.179a13.649,13.649,0,0,1-.3,2.035,24.209,24.209,0,0,0-.533,4.412,8.653,8.653,0,0,0,.228,2.415,6.023,6.023,0,0,0,.342.913,1.241,1.241,0,0,0,.647.456.791.791,0,0,1,.533.723,1.341,1.341,0,0,1-.685,1.141,2.594,2.594,0,0,1-1.445.456C393.2,275.227,392.441,273.535,392.612,270.168Zm-.818-7.456c-.894,0-2.073,1.008-3.519,3.005s-2.168,3.69-2.168,5.1q0,1.084.456,1.084c1.065,0,2.358-.932,3.9-2.8,1.56-1.883,2.32-3.519,2.32-4.926a1.65,1.65,0,0,0-.3-1.065.828.828,0,0,0-.685-.4Zm17.136,7.037a12.216,12.216,0,0,1-2.986,3.728,5.477,5.477,0,0,1-3.443,1.388,3.009,3.009,0,0,1-2.092-1.084,4.679,4.679,0,0,1-1.046-3.347,22.28,22.28,0,0,1,.8-4.831,16.949,16.949,0,0,0,.7-4.032,1.743,1.743,0,0,1,1.674-1.122,1.649,1.649,0,0,1,1.255.514,1.557,1.557,0,0,1,.456,1.027,8.578,8.578,0,0,1-.666,2.72,22.8,22.8,0,0,0-.837,2.967,14.446,14.446,0,0,0-.456,2.453q0,1.769.742,1.769c.761,0,1.826-.742,3.157-2.225a11.277,11.277,0,0,0,2.587-4.6,12.348,12.348,0,0,1,1.065-3.005,1.511,1.511,0,0,1,1.331-.7c.932,0,1.407.514,1.407,1.56a3.948,3.948,0,0,1-.228.913,16.7,16.7,0,0,0-.8,5.344c0,2.32.4,3.728,1.179,4.184a.659.659,0,0,1,.4.552c0,.323-.228.628-.7.913a2.394,2.394,0,0,1-1.293.437c-.7,0-1.255-.495-1.636-1.5a11.515,11.515,0,0,1-.571-4.013Zm.533-13.142h.019a27.145,27.145,0,0,1-2.206,1.617c-.475.323-.742.514-.837.59a.484.484,0,0,1-.361.114,1.09,1.09,0,0,1-.837-.342,1.075,1.075,0,0,1-.3-.8c0-.533.647-1.274,1.921-2.263h-.019c.361-.266.666-.514.951-.742q2.339-1.883,2.967-2.282a2.08,2.08,0,0,1,.913-.4c.228,0,.495.209.8.647a2.148,2.148,0,0,1,.437.989,1.345,1.345,0,0,1-.38.761,2.874,2.874,0,0,1-.932.7A13.609,13.609,0,0,0,409.464,256.608Z" transform="translate(4899.144 3263.493)" fill="#0160a8"/>
    <path id="Path_549" data-name="Path 549" d="M618.41,511.57a9.648,9.648,0,0,0-.285,1.122,11.385,11.385,0,0,0-.228,1.369,1.455,1.455,0,0,0,.076.59.37.37,0,0,0,.3.152,1.261,1.261,0,0,0,.533-.1,2.59,2.59,0,0,0,.685-.437.736.736,0,0,1,.457-.228.315.315,0,0,1,.228.1.264.264,0,0,1,.1.19c0,.3-.247.628-.723,1.008a2.407,2.407,0,0,1-1.522.571,1.263,1.263,0,0,1-1.008-.4,1.613,1.613,0,0,1-.361-1.141,14.292,14.292,0,0,1,.513-2.72c-.209.019-.361.038-.456.038h-.1a.933.933,0,0,1-.475-.152.545.545,0,0,1-.247-.475c0-.285.171-.437.495-.437l1.065-.038a12.433,12.433,0,0,0,.457-1.6c.1-.418.3-.628.647-.628a.573.573,0,0,1,.437.171.6.6,0,0,1,.152.38c0,.057-.152.571-.437,1.56,1.084-.1,1.674-.133,1.769-.133a.566.566,0,0,1,.361.076.42.42,0,0,1,.076.3c0,.3-.247.495-.761.571Zm6.333,2.263a5.016,5.016,0,0,1-1.122,1.407,2.039,2.039,0,0,1-1.293.513,1.042,1.042,0,0,1-.78-.418,1.715,1.715,0,0,1-.4-1.255,7.776,7.776,0,0,1,.3-1.807,6.6,6.6,0,0,0,.247-1.522.692.692,0,0,1,.647-.418.564.564,0,0,1,.456.19.573.573,0,0,1,.171.38,3,3,0,0,1-.247,1.027,7.4,7.4,0,0,0-.3,1.122,5.383,5.383,0,0,0-.171.913c0,.456.076.666.266.666.3,0,.685-.266,1.2-.837a4.184,4.184,0,0,0,.97-1.731,4.55,4.55,0,0,1,.4-1.122.545.545,0,0,1,.513-.266c.342,0,.514.19.514.59a1.6,1.6,0,0,1-.076.342,5.99,5.99,0,0,0-.3,2.016c0,.875.152,1.388.437,1.56a.267.267,0,0,1,.152.209c0,.133-.076.247-.266.342a.857.857,0,0,1-.475.171q-.4,0-.628-.571a4.514,4.514,0,0,1-.209-1.5Zm3.994-.666.1-.152a8.259,8.259,0,0,1,1.312-2,1.949,1.949,0,0,1,1.369-.761,1.291,1.291,0,0,1,.856.285.837.837,0,0,1,.323.666.767.767,0,0,1-.114.418.343.343,0,0,1-.3.171.8.8,0,0,1-.571-.266.509.509,0,0,0-.285-.152c-.266,0-.685.38-1.274,1.179a5.313,5.313,0,0,0-1.065,2.644.9.9,0,0,1-.266.59.7.7,0,0,1-.514.171.516.516,0,0,1-.495-.4,4.166,4.166,0,0,1-.152-1.293c0-.247.019-.59.019-1.008.019-.38.057-.875.133-1.426,0-.152.019-.266.019-.361a4.923,4.923,0,0,1,.114-.685.84.84,0,0,1,.266-.342.879.879,0,0,1,.475-.152.52.52,0,0,1,.418.152.458.458,0,0,1,.133.342,4.483,4.483,0,0,1-.228.989,4.19,4.19,0,0,0-.133.609Zm6.79-5a.743.743,0,0,1-.323.628.859.859,0,0,1-.552.266.74.74,0,0,1-.552-.247.775.775,0,0,1-.228-.495.76.76,0,0,1,.228-.59.912.912,0,0,1,.666-.228.75.75,0,0,1,.552.19A.61.61,0,0,1,635.528,508.166Zm-2.434,4.165h0a8.747,8.747,0,0,0,.152-1.046,1.025,1.025,0,0,1,.171-.628.534.534,0,0,1,.456-.266.779.779,0,0,1,.533.171.434.434,0,0,1,.19.361,3.431,3.431,0,0,1-.19.837l-.019.114a8.9,8.9,0,0,0-.342,1.579c-.038.418-.057.742-.057,1.008a4.1,4.1,0,0,0,.114.818.472.472,0,0,1,.019.152c0,.076-.076.19-.228.3a.717.717,0,0,1-.475.209c-.437,0-.666-.342-.666-1.008a12.039,12.039,0,0,1,.247-2.092C633.036,512.654,633.055,512.483,633.093,512.331Zm4.983,2.054c0-.171-.3-.4-.856-.666a3.755,3.755,0,0,1-1.331-.856,1.234,1.234,0,0,1-.285-.78,1.85,1.85,0,0,1,.989-1.56,3.422,3.422,0,0,1,1.883-.685q.856,0,.856.742a.525.525,0,0,1-.19.361.655.655,0,0,1-.342.152.619.619,0,0,1-.19-.057.454.454,0,0,0-.228-.076,2.025,2.025,0,0,0-.989.3.828.828,0,0,0-.533.7.494.494,0,0,0,.19.38,3.063,3.063,0,0,0,.78.456,3.633,3.633,0,0,1,1.16.761,1.13,1.13,0,0,1,.266.723c0,.495-.323.913-.989,1.236a5.054,5.054,0,0,1-2.244.495c-.609,0-.913-.228-.913-.666a.568.568,0,0,1,.19-.418.634.634,0,0,1,.437-.171,1.622,1.622,0,0,1,.285.076.969.969,0,0,0,.38.076,3.679,3.679,0,0,0,.989-.152A1.133,1.133,0,0,0,638.076,514.385Zm3.328.989a.519.519,0,0,1-.571.533c-.456,0-.666-.323-.666-.97a17.585,17.585,0,0,1,.171-2.644,12.4,12.4,0,0,0,.133-1.674.48.48,0,0,1,.114-.323.473.473,0,0,1,.361-.133c.495,0,.761.3.761.913a11.321,11.321,0,0,1-.266,1.522,5.315,5.315,0,0,0-.171,1.065c.97-2.13,1.826-3.176,2.606-3.176a.9.9,0,0,1,.761.361,3.217,3.217,0,0,1,.285,1.674c.019.78.057,1.16.133,1.16a4.505,4.505,0,0,0,.628-1.122,5.851,5.851,0,0,1,1.027-1.674,1.315,1.315,0,0,1,.894-.4.847.847,0,0,1,.818.475,4.868,4.868,0,0,1,.361,1.636,7.813,7.813,0,0,0,.19,1.369,1.015,1.015,0,0,0,.456.628.364.364,0,0,1,.247.361.622.622,0,0,1-.285.437,1.061,1.061,0,0,1-.59.209.9.9,0,0,1-.8-.495,5.34,5.34,0,0,1-.4-2.054,7.432,7.432,0,0,0-.114-.97c-.038-.152-.114-.247-.19-.247s-.19.133-.323.361c-.152.247-.4.723-.742,1.445a6.684,6.684,0,0,1-.78,1.35.855.855,0,0,1-1.312.133c-.19-.171-.3-.78-.3-1.826-.019-.951-.1-1.426-.19-1.426-.152,0-.475.418-1.027,1.255a17.065,17.065,0,0,0-1.217,2.244Zm13.789-2.263a3.864,3.864,0,0,1-1.274,2,2.9,2.9,0,0,1-1.9.818,1.6,1.6,0,0,1-1.236-.552,1.954,1.954,0,0,1-.475-1.35,4.427,4.427,0,0,1,.894-2.568,2.587,2.587,0,0,1,2.149-1.255,1.782,1.782,0,0,1,1.407.628,2.287,2.287,0,0,1,.532,1.522A3.333,3.333,0,0,1,655.194,513.111Zm-2.625-1.6a3.533,3.533,0,0,0-.685,1.008,3.038,3.038,0,0,0-.342,1.369,1.541,1.541,0,0,0,.152.7.477.477,0,0,0,.418.266,1.887,1.887,0,0,0,1.293-.742,2.392,2.392,0,0,0,.685-1.674,1.511,1.511,0,0,0-.228-.856.709.709,0,0,0-.609-.323A1.047,1.047,0,0,0,652.569,511.513Z" transform="translate(4665.433 3056.668)" fill="#f58220"/>
    <path id="copyright-light" d="M4.022,0A4.022,4.022,0,1,0,8.043,4.022,4.022,4.022,0,0,0,4.022,0Zm3.5,4.022a3.5,3.5,0,1,1-3.5-3.5A3.5,3.5,0,0,1,7.524,4.022ZM5.716,5.665A2.365,2.365,0,0,1,4.092,6.3,2.2,2.2,0,0,1,1.879,4.013a2.171,2.171,0,0,1,2.2-2.231A2.3,2.3,0,0,1,5.6,2.307a.194.194,0,0,1,.028.259l-.142.2a.2.2,0,0,1-.279.038,1.822,1.822,0,0,0-1.12-.384A1.516,1.516,0,0,0,2.56,4.007,1.565,1.565,0,0,0,4.1,5.663,1.82,1.82,0,0,0,5.3,5.2a.2.2,0,0,1,.283.02l.153.187A.194.194,0,0,1,5.716,5.665Z" transform="translate(5367.779 3506.44)" fill="#f58220"/>
  </g>
</svg>
