<svg xmlns="http://www.w3.org/2000/svg" viewBox="0 0 100.267 93.452">
  <defs>
    <style>
      .cls-1 {
        fill: #f58220;
      }

      .cls-1, .cls-2 {
        fill-rule: evenodd;
      }

      .cls-2, .cls-3 {
        fill: #0160a8;
      }
    </style>
  </defs>
  <g id="logo_min" transform="translate(-5350.992 -3499.835)">
    <path id="Path_544" data-name="Path 544" class="cls-1" d="M737.987,172.927a46.721,46.721,0,0,1-36.325,86.093c-.267-.133-.533-.244-.8-.355A40.219,40.219,0,1,0,680.8,190.278,46.771,46.771,0,0,1,737.987,172.927Z" transform="translate(4682.374 3330.586)"/>
    <path id="Path_545" data-name="Path 545" class="cls-2" d="M233.8,429.19c35.4,19.052,51.371-11.239,76.457-2.134C282.1,421.97,265.7,451.18,233.8,429.19Z" transform="translate(5133.551 3133.708)"/>
    <path id="Path_546" data-name="Path 546" class="cls-2" d="M256.8,388.99c35.416,19.052,51.384-11.239,76.457-2.134C305.114,381.77,288.7,410.98,256.8,388.99Z" transform="translate(5113.582 3168.611)"/>
    <path id="Path_547" data-name="Path 547" class="cls-2" d="M211.4,471.664c35.4,19.052,51.371-11.252,76.444-2.134C259.7,464.443,243.3,493.654,211.4,471.664Z" transform="translate(5153 3096.834)"/>
    <path id="Path_548" data-name="Path 548" class="cls-3" d="M349.984,261.187l-5.221,7.065c-2.422,3.377-4.266,5.066-5.577,5.066a1.98,1.98,0,0,1-1.622-1.044,14.577,14.577,0,0,1-1.444-3.177c-.489-1.422-.822-2.511-1.022-3.244a19.288,19.288,0,0,0-.911-2.888l-.8,4.088c-.267,1.311-.511,2.533-.778,3.621-.267,1.111-.533,2.444-.844,3.977a34.663,34.663,0,0,0-.578,3.51c-.022.244-.267.533-.755.844a2.448,2.448,0,0,1-1.089.444,1.922,1.922,0,0,1-1.4-.689,1.966,1.966,0,0,1-.644-1.333,15.107,15.107,0,0,1,.622-3.844q2.6-9.5,2.955-11.953a29.222,29.222,0,0,0,.378-4.088,1.455,1.455,0,0,1,.733-1.311,3.561,3.561,0,0,1,1.933-.444,1.661,1.661,0,0,1,1.266.844,5.051,5.051,0,0,1,.866,1.555l-.022-.022,2.177,6.088c.866,2.444,1.444,4,1.733,4.643,1.133-1.222,2.8-3.355,5.021-6.376s3.733-4.954,4.555-5.821c.822-.889,1.4-1.311,1.733-1.311a3.051,3.051,0,0,1,1.711.644c.622.422.933.8.933,1.089,0,.244-.2,1.8-.622,4.732-.267,2.044-.533,4.355-.755,6.91s-.355,4.044-.355,4.51a7.722,7.722,0,0,0,.222,1.733,5.675,5.675,0,0,1,.156,1.311,3.058,3.058,0,0,1-.533,2.111,2.194,2.194,0,0,1-1.666.578c-1.378,0-2.066-1.044-2.066-3.088a58.05,58.05,0,0,1,.533-7.132c.355-2.8.689-4.955.978-6.465q.167-.833.2-1.133Zm18.529,12.02q-4.132,5.432-7.976,5.443a3.137,3.137,0,0,1-2.422-1.133,3.936,3.936,0,0,1-1.022-2.822c0-2.777,1.244-5.732,3.688-8.865,2.466-3.133,4.954-4.688,7.465-4.688a2.418,2.418,0,0,1,2.511,1.933c1.2,0,1.822.444,1.822,1.378a15.945,15.945,0,0,1-.355,2.377,28.28,28.28,0,0,0-.622,5.154,10.11,10.11,0,0,0,.267,2.822,7.038,7.038,0,0,0,.4,1.066,1.45,1.45,0,0,0,.755.533.924.924,0,0,1,.622.844,1.567,1.567,0,0,1-.8,1.333,3.03,3.03,0,0,1-1.689.533C369.2,279.117,368.313,277.139,368.513,273.207Zm-.955-8.709c-1.044,0-2.422,1.178-4.11,3.51s-2.533,4.31-2.533,5.954q0,1.266.533,1.266c1.244,0,2.755-1.089,4.555-3.266,1.8-2.2,2.711-4.11,2.711-5.754a1.928,1.928,0,0,0-.355-1.244,1,1,0,0,0-.8-.467Zm12.908,6.176.267-.511a27.064,27.064,0,0,1,4.088-6.176c1.466-1.577,2.888-2.377,4.288-2.377a3.731,3.731,0,0,1,2.6.889,2.606,2.606,0,0,1,1.022,2.066,2.452,2.452,0,0,1-.355,1.311,1.055,1.055,0,0,1-.955.533,2.476,2.476,0,0,1-1.777-.8,1.488,1.488,0,0,0-.889-.511c-.778,0-2.088,1.2-3.932,3.644a16.852,16.852,0,0,0-3.333,8.22,2.853,2.853,0,0,1-.755,1.844,2.34,2.34,0,0,1-1.622.533,1.6,1.6,0,0,1-1.533-1.244,12.374,12.374,0,0,1-.467-4.021c0-.755.022-1.777.067-3.088.044-1.222.178-2.711.355-4.488.067-.444.089-.822.111-1.089a11.5,11.5,0,0,1,.333-2.088,2.124,2.124,0,0,1,.844-1.089,2.271,2.271,0,0,1,1.444-.489,1.6,1.6,0,0,1,1.289.489A1.535,1.535,0,0,1,382,263.3a13.977,13.977,0,0,1-.711,3.044,14.691,14.691,0,0,0-.422,1.911Zm23.128,2.533c-2.755,3.621-5.4,5.443-7.976,5.443a3.137,3.137,0,0,1-2.422-1.133,3.936,3.936,0,0,1-1.022-2.822c0-2.777,1.244-5.732,3.688-8.865,2.488-3.133,4.977-4.688,7.487-4.688a2.449,2.449,0,0,1,2.51,1.933c1.2,0,1.8.444,1.8,1.378a15.945,15.945,0,0,1-.355,2.377,28.277,28.277,0,0,0-.622,5.154,10.108,10.108,0,0,0,.267,2.822,7.03,7.03,0,0,0,.4,1.066,1.45,1.45,0,0,0,.755.533.924.924,0,0,1,.622.844,1.567,1.567,0,0,1-.8,1.333,3.03,3.03,0,0,1-1.688.533C404.283,279.117,403.394,277.139,403.594,273.207Zm-.955-8.709c-1.044,0-2.422,1.178-4.11,3.51S396,272.318,396,273.962q0,1.266.533,1.266c1.244,0,2.755-1.089,4.555-3.266,1.822-2.2,2.711-4.11,2.711-5.754a1.928,1.928,0,0,0-.355-1.244.967.967,0,0,0-.8-.467Zm20.018,8.22a14.27,14.27,0,0,1-3.488,4.355,6.4,6.4,0,0,1-4.021,1.622,3.516,3.516,0,0,1-2.444-1.266,5.466,5.466,0,0,1-1.222-3.91,26.027,26.027,0,0,1,.933-5.643,19.8,19.8,0,0,0,.822-4.71,2.036,2.036,0,0,1,1.955-1.311,1.926,1.926,0,0,1,1.466.6,1.818,1.818,0,0,1,.533,1.2,10.02,10.02,0,0,1-.778,3.177,26.63,26.63,0,0,0-.978,3.466,16.874,16.874,0,0,0-.533,2.866q0,2.066.867,2.066c.889,0,2.133-.866,3.688-2.6a13.173,13.173,0,0,0,3.022-5.377,14.424,14.424,0,0,1,1.244-3.51,1.765,1.765,0,0,1,1.555-.822c1.089,0,1.644.6,1.644,1.822a4.612,4.612,0,0,1-.267,1.066,19.5,19.5,0,0,0-.933,6.243c0,2.711.467,4.355,1.378,4.888a.77.77,0,0,1,.467.644c0,.378-.267.733-.822,1.066a2.8,2.8,0,0,1-1.511.511c-.822,0-1.466-.578-1.911-1.755A13.453,13.453,0,0,1,422.657,272.718Zm.622-15.352h.022a31.717,31.717,0,0,1-2.577,1.888c-.555.378-.866.6-.978.689a.566.566,0,0,1-.422.133,1.273,1.273,0,0,1-.978-.4,1.256,1.256,0,0,1-.355-.933c0-.622.755-1.489,2.244-2.644h-.022c.422-.311.778-.6,1.111-.866q2.733-2.2,3.466-2.666a2.43,2.43,0,0,1,1.066-.467c.267,0,.578.244.933.755a2.509,2.509,0,0,1,.511,1.155,1.572,1.572,0,0,1-.444.889,3.357,3.357,0,0,1-1.089.822A15.894,15.894,0,0,0,423.279,257.366Z" transform="translate(5023.692 3266.143)"/>
  </g>
</svg>
